<svg width="20" height="20" viewBox="0 0 800 800" fill="none" xmlns="http://www.w3.org/2000/svg">
<path d="M495.76 648.113C495.76 658.223 493.173 668.237 488.15 677.58C483.123 686.923 475.76 695.41 466.477 702.563C457.19 709.713 446.167 715.383 434.037 719.253C421.907 723.123 408.903 725.117 395.773 725.117C382.643 725.117 369.643 723.123 357.51 719.253C345.38 715.383 334.357 709.713 325.074 702.563C315.789 695.41 308.424 686.923 303.4 677.58C298.375 668.237 295.789 658.223 295.789 648.113" stroke="#E4E6EB" stroke-width="50" stroke-linecap="round"/>
<path d="M653.823 439.656L662.643 458.683C696.293 531.246 652.47 616.063 573.817 630.6L568.477 631.586C454.31 652.69 337.24 652.69 223.073 631.586C143.776 616.93 101.824 529.2 140.196 458.276L147.743 444.326C168.349 406.24 179.139 363.616 179.139 320.314V276.271C179.139 202.144 221.094 134.404 287.457 101.379C355.933 67.3032 436.173 66.1442 505.603 98.2278L512.427 101.379C583.543 134.242 629.077 205.441 629.077 283.784V327.472C629.077 366.22 637.52 404.503 653.823 439.656Z" stroke="#E4E6EB" stroke-width="50"/>
</svg>
