<svg width="16" height="16" viewBox="0 0 800 800" fill="none" xmlns="http://www.w3.org/2000/svg">
<path d="M220 178.794V207.647C224.657 207.647 229.251 206.604 233.416 204.601C237.582 202.598 241.206 199.689 244 196.106L220 178.794ZM280 101.853V73C275.343 73 270.749 74.0429 266.584 76.0461C262.418 78.0493 258.794 80.9578 256 84.5412L280 101.853ZM580 178.794L556 196.106C558.794 199.689 562.418 202.598 566.584 204.601C570.749 206.604 575.343 207.647 580 207.647V178.794ZM520 101.853L544 84.5412C541.206 80.9578 537.582 78.0493 533.416 76.0461C529.251 74.0429 524.657 73 520 73V101.853ZM740 255.735V621.206H800V255.735H740ZM690 669.294H110V727H690V669.294ZM60 621.206V255.735H0V621.206H60ZM110 207.647H220V149.941H110V207.647ZM244 196.106L304 119.165L256 84.5412L196 161.482L244 196.106ZM580 207.647H690V149.941H580V207.647ZM604 161.482L544 84.5412L496 119.165L556 196.106L604 161.482ZM520 73H280V130.706H520V73ZM110 669.294C82.385 669.294 60 647.765 60 621.206H0C0 679.633 49.25 727 110 727V669.294ZM740 621.206C740 647.765 717.615 669.294 690 669.294V727C750.75 727 800 679.633 800 621.206H740ZM800 255.735C800 197.308 750.75 149.941 690 149.941V207.647C717.615 207.647 740 229.176 740 255.735H800ZM60 255.735C60 229.176 82.385 207.647 110 207.647V149.941C49.25 149.941 0 197.308 0 255.735H60Z" fill="#B0B3B8"/>
<path d="M400 541.666C464.433 541.666 516.667 489.433 516.667 425C516.667 360.566 464.433 308.333 400 308.333C335.567 308.333 283.333 360.566 283.333 425C283.333 489.433 335.567 541.666 400 541.666Z" stroke="#B0B3B8" stroke-width="50"/>
<circle cx="557" cy="292" r="40" fill="#B0B3B8"/>
</svg>
