<svg width="800" height="800" viewBox="0 0 800 800" fill="none" xmlns="http://www.w3.org/2000/svg">
<g clip-path="url(#clip0_137_51)">
<path fill-rule="evenodd" clip-rule="evenodd" d="M66.6665 400C66.6665 215.905 215.905 66.6667 400 66.6667C584.093 66.6667 733.333 215.905 733.333 400C733.333 584.093 584.093 733.333 400 733.333C215.905 733.333 66.6665 584.093 66.6665 400ZM527.736 485.157C517.523 500.473 496.826 504.613 481.51 494.403L394.837 436.62C377.237 424.887 366.667 405.137 366.667 383.987V383.333V233.333C366.667 214.924 381.59 200 400 200C418.41 200 433.333 214.924 433.333 233.333V382.16L518.49 438.93C533.806 449.143 537.946 469.84 527.736 485.157Z" fill="#8C939D"/>
</g>
<defs>
<clipPath id="clip0_137_51">
<rect width="800" height="800" fill="white"/>
</clipPath>
</defs>
</svg>
