<svg width="20" height="20" viewBox="0 0 800 800" fill="none" xmlns="http://www.w3.org/2000/svg">
<path d="M541.4 45.925C538 44.55 534.075 43.75 529.95 43.75C516.825 43.75 505.575 51.85 500.95 63.35L500.875 63.55L244.5 715C243.1 718.425 242.275 722.4 242.275 726.575C242.275 743.825 256.25 757.825 273.525 757.825C286.725 757.825 298.025 749.625 302.6 738.05L302.675 737.85L559.1 86.45C560.475 83.075 561.25 79.15 561.25 75.025C561.25 61.875 553.125 50.6 541.625 45.975L541.425 45.9L541.4 45.925ZM247.1 552.875L92.775 398.575L248.5 220.55C253.3 215.075 256.225 207.875 256.225 199.975C256.225 182.725 242.225 168.725 224.975 168.725C215.625 168.725 207.225 172.85 201.5 179.35L201.475 179.375L26.475 379.4C21.675 384.875 18.725 392.075 18.725 399.975C18.725 408.6 22.225 416.425 27.875 422.075L202.875 597.1C208.525 602.75 216.35 606.25 224.975 606.25C242.25 606.25 256.25 592.25 256.25 574.975C256.25 566.325 252.75 558.525 247.075 552.85L247.1 552.875ZM773.525 379.425L598.525 179.425C592.775 172.85 584.35 168.75 575 168.75C557.725 168.75 543.725 182.75 543.725 200.025C543.725 207.925 546.65 215.15 551.475 220.65L551.45 220.625L707.2 398.625L552.85 552.925C547.2 558.575 543.7 566.4 543.7 575.025C543.7 592.3 557.7 606.3 574.975 606.3C583.6 606.3 591.425 602.8 597.075 597.15L772.075 422.125C777.725 416.475 781.225 408.65 781.225 400.025C781.225 392.125 778.3 384.9 773.45 379.4L773.475 379.425H773.525Z" fill="#E4E6EB"/>
</svg>
