<svg width="20" height="20" viewBox="0 0 20 20" fill="none" xmlns="http://www.w3.org/2000/svg">
<path d="M10.0071 19C9.6104 19 9.21122 18.8722 8.89287 18.6144L5.76941 16.2131H3.33347C1.49506 16.2131 3.48229e-07 14.8486 3.48229e-07 13.1706V4.04247C-0.00083302 2.36455 1.49423 1 3.33264 1H16.6665C18.5049 1 20 2.36455 20 4.04247V13.1699C20 14.8478 18.5049 16.2123 16.6665 16.2123H14.2898L11.0838 18.6311C10.7821 18.876 10.3963 18.9992 10.0063 18.9992L10.0071 19ZM3.33264 2.52123C2.41343 2.52123 1.6659 3.20351 1.6659 4.04247V13.1699C1.6659 14.0088 2.41343 14.6911 3.33264 14.6911H6.07359C6.27026 14.6911 6.46027 14.7542 6.61111 14.8699L9.98375 17.4636L13.4589 14.8653C13.6089 14.7527 13.7964 14.6911 13.9906 14.6911H16.6674C17.5866 14.6911 18.3341 14.0088 18.3341 13.1699V4.04247C18.3341 3.20351 17.5866 2.52123 16.6674 2.52123H3.33264Z" fill="#E4E6EB"/>
</svg>
