<svg width="800" height="800" viewBox="0 0 800 800" fill="none" xmlns="http://www.w3.org/2000/svg">
<g clip-path="url(#clip0_137_34)">
<path d="M300 333.333C291.159 333.333 282.681 336.845 276.43 343.096C270.179 349.348 266.667 357.826 266.667 366.667V500H333.333V400H433.333V483.333L550 366.667L433.333 250V333.333H300ZM423.567 46.4333L753.567 376.433C759.816 382.684 763.326 391.161 763.326 400C763.326 408.839 759.816 417.316 753.567 423.567L423.567 753.567C417.316 759.816 408.839 763.326 400 763.326C391.161 763.326 382.684 759.816 376.433 753.567L46.4334 423.567C40.1843 417.316 36.6738 408.839 36.6738 400C36.6738 391.161 40.1843 382.684 46.4334 376.433L376.433 46.4333C382.684 40.1843 391.161 36.6738 400 36.6738C408.839 36.6738 417.316 40.1843 423.567 46.4333Z" fill="#8C939D"/>
</g>
<defs>
<clipPath id="clip0_137_34">
<rect width="800" height="800" fill="white"/>
</clipPath>
</defs>
</svg>
