<svg width="12" height="12" viewBox="0 0 800 800" fill="none" xmlns="http://www.w3.org/2000/svg">
<g clip-path="url(#clip0_139_65)">
<path d="M768.555 244.292C738.17 172.483 687.478 111.45 623.655 68.3344C559.844 25.2031 482.753 -0.0124954 399.994 4.64522e-06C344.83 4.64522e-06 292.156 11.2 244.291 31.4438C172.47 61.8297 111.439 112.509 68.3203 176.344C25.1906 240.144 -0.0249814 317.234 1.85721e-05 399.994C-0.0124814 455.17 11.1875 507.831 31.4453 555.709C61.8172 627.519 112.509 688.55 176.333 731.667C240.144 774.797 317.234 800.013 399.994 800C455.158 800 507.831 788.8 555.695 768.555C627.517 738.17 688.536 687.489 731.666 623.655C774.797 559.856 800 482.766 800 399.994C800 344.83 788.8 292.169 768.555 244.292ZM584.797 548.794C571.405 571.916 582.156 604.081 565.638 625.013C548.533 646.128 539.836 640.983 527.677 669.275C526.344 672.963 504.642 719.145 499.222 705.403C503.994 717.675 498.623 729.872 483.039 730.831C470.617 731.566 479.55 738.755 475.689 743.725C460.278 747.116 444.494 749.519 428.386 750.789C417.561 711.259 411.605 665.477 411.878 652.395C412.875 601.639 401.552 622.197 374.989 584.673C356.839 558.872 340.755 530.294 341.702 497.591C341.564 503.434 378.153 414.644 351.742 431.575C319.661 452.156 313.756 408.814 282.848 404.766C267.064 402.673 271.661 386.378 253.958 389.169C238.061 391.659 219.997 370.569 208.213 362.62C200.477 357.039 186.997 281.966 175.647 283.038C159.439 283.636 187.519 334.677 181.639 336.384C169.542 338.652 148.338 264.364 148.738 258.247C149.347 238.513 147.441 227.387 160.498 210.98C165.569 204.377 194.433 178.987 191.394 169.88C186.225 153.995 188.891 135.47 180.605 124.831C187.919 118.989 195.455 113.408 203.241 108.148C219.35 97.2609 236.442 87.7172 254.295 79.5828C256.377 79.5203 258.456 79.4328 260.498 79.2094C276.445 77.6516 292.728 71.4609 308.923 73.9156C330.277 77.0531 353.436 86.2484 375.923 84.4922C396.628 83.0344 455.045 64.2594 472.798 79.4078C480.634 86.1359 384.606 113.345 381.555 126.35C379.997 134.822 406.558 134.075 408.85 134.286C435.548 136.478 402.223 158.43 418.619 163.163C443.797 169.242 461.959 75.1344 483.002 124.344C491.598 144.75 521.136 110.989 524.475 136.166C527.839 162.652 553.266 171.609 506.497 175.048C462.633 178.611 498.897 198.058 470.269 210.691C442.886 222.75 417.844 228.045 397.675 252.825C374.927 280.93 372.747 279.995 363.814 315.962C358.892 335.595 333.067 302.147 342.922 289.875C339.508 294.084 309.259 280.344 306.256 287.395C300.389 300.998 284.442 293.7 271.909 302.034C256.063 312.512 240.539 346.472 256.398 362.394C269.094 375.052 312.797 334.45 315.177 348.316C317.045 358.919 299.678 366.442 301.573 377.045C304.302 392.394 331.061 372.647 331.048 384.57C331.061 392.219 329.791 424.187 353.348 416.189C366.044 411.855 367.302 420.948 375.238 419.042C386.113 416.413 390.972 401.913 403.792 403.805C419.052 406.034 436.158 413.759 450.783 418.07C474.553 425.108 473.494 444.967 499.944 449.041C526.367 453.202 515.803 477.67 512.55 491.536C514.073 504.031 623.605 485.581 584.797 548.794ZM688.611 198.645C689.683 200.178 690.803 201.698 691.839 203.255C698.105 212.498 703.886 222.105 709.242 231.97C706.987 232.742 704.858 233.366 703.225 233.552C696.323 234.423 685.123 228.394 683.405 225.803C682.02 223.736 686.669 205.822 688.611 198.645ZM751.911 401.925C749.955 400.828 747.825 400.242 745.445 400.728C736.823 402.447 704.084 411.069 692.025 409.336C679.953 407.605 642.055 371.427 642.055 362.806C642.055 354.197 643.775 321.445 647.213 316.275C650.664 311.105 669.612 287.484 676.514 277.156C683.403 266.805 693.744 253.037 702.364 251.306C705.044 250.77 710.762 249.725 717.714 248.441C739.639 294.338 751.936 345.677 751.948 399.994C751.948 400.642 751.911 401.264 751.911 401.925Z" fill="#B0B3B8"/>
</g>
<defs>
<clipPath id="clip0_139_65">
<rect width="800" height="800" fill="white"/>
</clipPath>
</defs>
</svg>
