<svg width="20" height="20" viewBox="0 0 800 800" fill="none" xmlns="http://www.w3.org/2000/svg">
<path d="M136.448 750H663.984C754.804 750 800 710.456 800 632.13V167.87C800 89.5438 754.804 50 663.984 50H136.448C46.0622 50 0 89.1625 0 167.87V632.13C0 710.838 46.0622 750 136.448 750ZM139.054 699.5C95.6008 699.5 52.5 668.632 52.5 629.088V170.912C52.5 131.368 94.2974 101.5 137.751 101.5H662.681C705.701 101.5 746.5 134.41 746.5 173.954V632.13C746.5 671.673 707.004 699.5 663.984 699.5H139.054ZM400.217 467.871C421.073 467.871 426.291 457.605 426.724 437.832L433.241 237.073C433.677 217.68 422.812 203.232 399.781 203.232C376.316 203.232 365.453 217.682 365.887 237.073L371.537 438.214C371.97 457.607 378.489 467.871 400.217 467.871ZM400.217 591.445C425.419 591.445 447.147 573.955 447.147 551.902C447.147 529.848 425.853 512.358 400.217 512.358C374.577 512.358 353.285 530.229 353.285 551.902C353.285 573.574 375.013 591.445 400.217 591.445Z" fill="#E4E6EB"/>
</svg>
