<svg width="20" height="20" viewBox="0 0 24 24" fill="none" xmlns="http://www.w3.org/2000/svg">
<g clip-path="url(#clip0_117_2)">
<path fill-rule="evenodd" clip-rule="evenodd" d="M12 0C5.24 0 0 4.952 0 11.64C0 15.138 1.434 18.162 3.769 20.25C3.965 20.425 4.083 20.671 4.092 20.934L4.157 23.068C4.178 23.749 4.881 24.192 5.504 23.917L7.886 22.866C8.088 22.777 8.314 22.761 8.527 22.819C9.621 23.12 10.786 23.28 12 23.28C18.76 23.28 24 18.328 24 11.64C24 4.952 18.76 0 12 0ZM19.206 8.956L15.681 14.549C15.12 15.439 13.919 15.66 13.078 15.029L10.274 12.926C10.017 12.733 9.663 12.734 9.407 12.929L5.62 15.802C5.115 16.185 4.455 15.581 4.793 15.044L8.318 9.451C8.879 8.561 10.08 8.34 10.921 8.971L13.725 11.074C13.982 11.267 14.336 11.266 14.592 11.071L18.379 8.198C18.885 7.815 19.544 8.419 19.206 8.956Z" fill="#E4E6EB"/>
</g>
<defs>
<clipPath id="clip0_117_2">
<rect width="24" height="24" fill="white"/>
</clipPath>
</defs>
</svg>
