<svg width="auto" height="20" viewBox="0 0 619 360" fill="none" xmlns="http://www.w3.org/2000/svg">
<path d="M165.939 338H451.945C491.374 338 528.515 321.394 556.543 291.11C584.568 260.892 600 220.882 600 178.5C600 136.118 584.568 96.1077 556.543 65.8899C528.516 35.67 491.433 19 452.003 19H165.997C126.625 19 89.484 35.6699 61.457 65.8899C33.4324 96.1075 18 136.056 18 178.5C18 220.943 33.3735 260.954 61.3999 291.111C89.4265 321.33 126.509 338 165.939 338ZM73.6336 78.8618C98.4663 52.148 131.264 37.4181 165.997 37.4181H452.003C486.794 37.4181 519.591 52.1481 544.365 78.8603C569.142 105.639 582.831 141.039 582.831 178.562C582.831 216.148 569.142 251.549 544.366 278.264C519.533 304.977 486.736 319.707 452.003 319.707H165.997C131.206 319.707 98.4084 304.977 73.6342 278.264C48.8573 251.486 35.1687 216.085 35.1687 178.562C35.1687 140.977 48.8577 105.577 73.6336 78.8618Z" fill="#E4E6EB" stroke="#E4E6EB" stroke-width="2"/>
<path d="M360 228C360 235.956 363.161 243.587 368.787 249.213C374.413 254.839 382.044 258 390 258C397.956 258 405.587 254.839 411.213 249.213C416.839 243.587 420 235.956 420 228C420 220.044 416.839 212.413 411.213 206.787C405.587 201.161 397.956 198 390 198C382.044 198 374.413 201.161 368.787 206.787C363.161 212.413 360 220.044 360 228Z" fill="#E4E6EB"/>
<path d="M430 121C430 128.956 433.161 136.587 438.787 142.213C444.413 147.839 452.044 151 460 151C467.956 151 475.587 147.839 481.213 142.213C486.839 136.587 490 128.956 490 121C490 113.044 486.839 105.413 481.213 99.7868C475.587 94.1607 467.956 91 460 91C452.044 91 444.413 94.1607 438.787 99.7868C433.161 105.413 430 113.044 430 121Z" fill="#E4E6EB"/>
<rect x="176" y="91" width="35" height="177" rx="17.5" fill="#E4E6EB"/>
<rect x="105" y="201" width="33" height="177" rx="16.5" transform="rotate(-90 105 201)" fill="#E4E6EB"/>
</svg>
