<svg width="16" height="16" viewBox="0 0 800 800" fill="none" xmlns="http://www.w3.org/2000/svg">
<path d="M630.864 726H169.136C124.278 726 81.2576 711.567 49.5387 685.873C17.8198 660.18 0 625.333 0 589V215C0 178.665 17.8198 143.819 49.5387 118.127C81.2576 92.434 124.278 78 169.136 78H630.864C675.72 78 718.741 92.434 750.461 118.127C782.181 143.819 800 178.665 800 215V589C800 625.333 782.181 660.18 750.461 685.873C718.741 711.567 675.72 726 630.864 726ZM169.136 128C140.649 128 113.33 137.166 93.1872 153.482C73.0444 169.798 61.7284 191.926 61.7284 215V589C61.7284 612.073 73.0444 634.203 93.1872 650.52C113.33 666.833 140.649 676 169.136 676H630.864C659.35 676 686.671 666.833 706.811 650.52C726.955 634.203 738.272 612.073 738.272 589V215C738.272 191.926 726.955 169.798 706.811 153.482C686.671 137.166 659.35 128 630.864 128H169.136Z" fill="#B0B3B8"/>
<path d="M262 496.667C236.362 496.667 211.775 486.484 193.646 468.354C175.518 450.227 165.333 425.637 165.333 400C165.333 374.364 175.518 349.777 193.646 331.647C211.775 313.518 236.362 303.334 262 303.334C268.63 303.334 274.99 305.968 279.678 310.656C284.366 315.345 287 321.703 287 328.334C287 334.964 284.366 341.324 279.678 346.01C274.99 350.7 268.63 353.334 262 353.334C253.902 353.38 245.955 355.53 238.941 359.577C231.927 363.624 226.086 369.427 221.994 376.414C217.901 383.404 215.697 391.334 215.599 399.434C215.5 407.53 217.51 415.514 221.432 422.597C225.354 429.684 231.051 435.627 237.965 439.844C244.879 444.06 252.771 446.404 260.865 446.647C268.96 446.887 276.978 445.02 284.132 441.224C291.285 437.43 297.328 431.837 301.667 425H286.333C279.703 425 273.344 422.367 268.656 417.677C263.968 412.99 261.333 406.63 261.333 400C261.333 393.37 263.968 387.01 268.656 382.324C273.344 377.634 279.703 375 286.333 375H333.333C339.937 375.087 346.247 377.747 350.917 382.417C355.587 387.087 358.247 393.397 358.333 400C358.247 425.554 348.08 450.04 330.042 468.14C312.004 486.24 287.553 496.49 262 496.667Z" fill="#B0B3B8"/>
<path d="M421.667 496.333C418.37 496.38 415.1 495.763 412.047 494.523C408.993 493.28 406.22 491.443 403.89 489.11C401.56 486.78 399.72 484.006 398.48 480.953C397.237 477.9 396.623 474.63 396.667 471.333V328C396.667 321.37 399.3 315.011 403.99 310.322C408.677 305.634 415.037 303 421.667 303C428.297 303 434.657 305.634 439.343 310.322C444.033 315.011 446.667 321.37 446.667 328V471.333C446.667 477.963 444.033 484.323 439.343 489.01C434.657 493.7 428.297 496.333 421.667 496.333Z" fill="#B0B3B8"/>
<path d="M511 496.667C504.397 496.58 498.087 493.92 493.417 489.25C488.747 484.58 486.087 478.27 486 471.667V328.334C486 321.703 488.633 315.345 493.323 310.656C498.01 305.968 504.37 303.334 511 303.334C517.63 303.334 523.99 305.968 528.677 310.656C533.367 315.345 536 321.703 536 328.334V471.667C536 474.95 535.353 478.2 534.097 481.234C532.84 484.267 531 487.024 528.677 489.344C526.357 491.667 523.6 493.507 520.567 494.764C517.533 496.02 514.283 496.667 511 496.667Z" fill="#B0B3B8"/>
<path d="M597.667 427H511C504.37 427 498.01 424.367 493.323 419.677C488.633 414.99 486 408.63 486 402C486 395.37 488.633 389.01 493.323 384.323C498.01 379.633 504.37 377 511 377H597.667C604.297 377 610.657 379.633 615.343 384.323C620.033 389.01 622.667 395.37 622.667 402C622.667 408.63 620.033 414.99 615.343 419.677C610.657 424.367 604.297 427 597.667 427Z" fill="#B0B3B8"/>
<path d="M597.667 353.334H511C504.37 353.334 498.01 350.7 493.323 346.01C488.633 341.324 486 334.964 486 328.334C486 321.703 488.633 315.345 493.323 310.656C498.01 305.968 504.37 303.334 511 303.334H597.667C604.297 303.334 610.657 305.968 615.343 310.656C620.033 315.345 622.667 321.703 622.667 328.334C622.667 334.964 620.033 341.324 615.343 346.01C610.657 350.7 604.297 353.334 597.667 353.334Z" fill="#B0B3B8"/>
</svg>
