<svg width="28" height="28" viewBox="0 0 800 800" fill="none" xmlns="http://www.w3.org/2000/svg">
<g clip-path="url(#clip0_126_29)">
<path d="M280.878 271.403C280.878 303.906 293.543 341.419 314.755 371.753C338.837 406.188 369.287 425.152 400.495 425.152C431.702 425.152 462.152 406.188 486.233 371.752C507.446 341.419 520.111 303.905 520.111 271.403C520.111 205.221 466.452 151.379 400.495 151.379C334.538 151.379 280.878 205.221 280.878 271.403ZM400.495 172.223C454.996 172.223 499.337 216.716 499.337 271.403C499.337 299.359 487.801 333.223 469.23 359.78C449.44 388.078 424.387 404.307 400.495 404.307C376.603 404.307 351.55 388.078 331.76 359.78C313.189 333.224 301.651 299.361 301.651 271.403C301.651 216.715 345.993 172.223 400.495 172.223Z" fill="#E4E6EB"/>
<path d="M400.495 172.223C454.996 172.223 499.337 216.716 499.337 271.403C499.337 299.359 487.801 333.223 469.23 359.78C449.44 388.078 424.387 404.307 400.495 404.307C376.603 404.307 351.55 388.078 331.76 359.78C313.189 333.224 301.651 299.361 301.651 271.403C301.651 216.715 345.993 172.223 400.495 172.223Z" fill="#E4E6EB"/>
<path d="M489.751 401.878C485.788 399.984 481.064 400.797 477.952 403.909C454.72 427.154 427.934 439.44 400.488 439.44C373.038 439.44 346.259 427.154 323.041 403.911C319.931 400.797 315.204 399.984 311.241 401.878C276.267 418.584 246.666 444.719 225.639 477.457C204.041 511.086 192.624 550.102 192.624 590.287V590.455C192.624 593.396 193.862 596.2 196.032 598.176C252.109 649.205 324.718 677.308 400.487 677.308C476.255 677.308 548.865 649.204 604.941 598.176C607.112 596.2 608.35 593.397 608.35 590.455V590.287C608.35 550.102 596.936 511.086 575.343 477.458C554.321 444.718 524.724 418.583 489.751 401.878ZM400.49 656.463C331.438 656.463 265.207 631.418 213.451 585.833C214.258 551.237 224.469 517.761 243.103 488.748C260.748 461.275 285.095 438.967 313.812 423.886C339.773 447.727 369.602 460.284 400.49 460.284C431.373 460.284 461.206 447.729 487.181 423.886C515.895 438.967 540.24 461.275 557.883 488.748C576.513 517.759 586.721 551.236 587.528 585.833C535.771 631.418 469.54 656.463 400.49 656.463Z" fill="#E4E6EB"/>
<path d="M400.49 656.463C331.438 656.463 265.207 631.418 213.451 585.833C214.258 551.237 224.469 517.761 243.103 488.748C260.748 461.275 285.095 438.967 313.812 423.886C339.773 447.727 369.602 460.284 400.49 460.284C431.373 460.284 461.206 447.729 487.181 423.886C515.895 438.967 540.24 461.275 557.883 488.748C576.513 517.759 586.721 551.236 587.528 585.833C535.771 631.418 469.54 656.463 400.49 656.463Z" fill="#E4E6EB"/>
<path d="M701.23 408.441C682.908 379.91 657.113 357.132 626.635 342.575C622.671 340.681 617.945 341.494 614.835 344.605C595.015 364.436 572.195 374.919 548.84 374.919C536.179 374.919 523.657 371.855 511.624 365.813C506.492 363.238 500.255 365.323 497.688 370.47C495.12 375.618 497.198 381.879 502.329 384.454C517.276 391.959 532.925 395.764 548.841 395.764C575.618 395.764 601.473 385.012 624.024 364.585C648.265 377.506 668.823 396.454 683.77 419.732C699.62 444.416 708.36 472.875 709.166 502.297C683.512 524.751 653.004 541.831 620.658 551.815C615.175 553.508 612.096 559.34 613.783 564.841C615.157 569.323 619.267 572.202 623.707 572.202C624.718 572.202 625.748 572.053 626.765 571.739C663.477 560.408 697.997 540.665 726.59 514.643C728.762 512.667 730 509.864 730 506.922V506.776C729.999 471.752 720.05 437.748 701.23 408.441Z" fill="#E4E6EB"/>
<path d="M251.718 362.005C262.7 362.005 273.656 359.317 284.285 354.017C289.422 351.456 291.517 345.2 288.965 340.046C286.412 334.89 280.177 332.789 275.041 335.35C267.31 339.205 259.464 341.159 251.718 341.159C231.58 341.159 210.399 327.382 193.603 303.361C177.747 280.686 167.896 251.79 167.896 227.952C167.896 181.574 205.499 143.843 251.718 143.843C273.533 143.843 294.193 152.211 309.892 167.408C314.019 171.403 320.595 171.288 324.577 167.144C328.56 163.002 328.442 156.404 324.314 152.408C304.723 133.444 278.941 123 251.718 123C194.043 123 147.123 170.082 147.123 227.954C147.123 256.274 158.143 288.94 176.598 315.334C197.641 345.429 224.319 362.005 251.718 362.005Z" fill="#E4E6EB"/>
<path d="M155.525 542.196C132.324 532.161 110.919 518.612 91.8356 501.892C92.6416 472.554 101.357 444.181 117.167 419.567C132.069 396.363 152.566 377.47 176.731 364.585C199.22 384.96 225.002 395.679 251.707 395.679C267.754 395.679 283.517 391.809 298.556 384.177C303.675 381.579 305.726 375.31 303.138 370.173C300.549 365.035 294.301 362.979 289.181 365.576C277.074 371.719 264.466 374.835 251.707 374.835C228.426 374.835 205.676 364.382 185.919 344.605C182.809 341.492 178.084 340.68 174.119 342.574C143.715 357.097 117.984 379.815 99.7046 408.275C80.9255 437.514 71 471.434 71 506.371V506.514C71 509.454 72.2381 512.258 74.4082 514.235C96.0526 533.931 120.578 549.78 147.3 561.338C148.641 561.918 150.036 562.193 151.408 562.193C155.43 562.193 159.258 559.835 160.951 555.894C163.221 550.608 160.792 544.475 155.525 542.196Z" fill="#E4E6EB"/>
<path d="M167.74 557.288C164.041 566.241 174.016 575.12 182.443 570.332C186.928 567.784 188.929 562.082 186.912 557.291C183.579 548.752 171.155 549.02 167.74 557.288Z" fill="#E4E6EB"/>
<path d="M186.912 557.29C187.175 557.916 186.663 556.651 186.912 557.29Z" fill="black"/>
<path d="M491.099 167.41C506.798 152.213 527.457 143.845 549.272 143.845C595.491 143.845 633.094 181.576 633.094 227.954C633.094 251.792 623.245 280.686 607.386 303.363C590.59 327.384 569.407 341.161 549.271 341.161C541.525 341.161 533.678 339.207 525.948 335.352C520.809 332.79 514.575 334.892 512.023 340.048C509.471 345.202 511.566 351.457 516.702 354.019C527.331 359.319 538.289 362.007 549.271 362.007C576.668 362.007 603.348 345.433 624.391 315.336C642.848 288.942 653.866 256.276 653.866 227.956C653.866 170.084 606.944 123.002 549.271 123.002C522.048 123.002 496.267 133.446 476.675 152.41C472.547 156.406 472.429 163.005 476.412 167.146C480.392 171.288 486.969 171.407 491.099 167.41Z" fill="#E4E6EB"/>
<circle cx="400" cy="400" r="390" stroke="#E4E6EB" stroke-width="20"/>
</g>
<defs>
<clipPath id="clip0_126_29">
<rect width="800" height="800" fill="white"/>
</clipPath>
</defs>
</svg>
