<svg width="800" height="800" viewBox="0 0 800 800" fill="none" xmlns="http://www.w3.org/2000/svg">
<path d="M599.225 314.85L689.85 397.675C700.8 407.825 697.675 415.65 682.825 415.65H614.85V632.05C614.85 646.9 602.35 660.175 587.5 660.175H469.525V508.6C469.525 493.75 456.25 480.475 441.4 480.475H367.175C352.325 480.475 339.05 493.75 339.05 508.6V660.175H221.075C206.225 660.175 192.95 646.9 192.95 632.05V415.65H125.75C110.9 415.65 107.775 407.825 118.725 397.675L383.575 157.05C394.525 146.9 413.275 146.9 424.975 157.05L485.125 210.95V167.975C485.125 153.125 498.4 139.85 513.25 139.85H571.85C586.7 139.85 599.2 153.125 599.2 167.975L599.225 314.85Z" fill="#B0B3B8"/>
</svg>
