<svg width="22" height="22" viewBox="0 0 800 800" fill="none" xmlns="http://www.w3.org/2000/svg">
<g clip-path="url(#clip0_127_2)">
<path d="M58.885 395.809C32.8611 395.809 11.7646 375.702 11.7646 350.899C11.7646 338.516 17.1292 326.683 26.5904 318.196L367.705 12.2066C385.849 -4.06885 414.151 -4.06885 432.295 12.2066L773.409 318.196C792.36 335.195 793.264 363.617 775.428 381.679C766.523 390.696 754.107 395.809 741.115 395.809H729.843V710.18C729.843 759.786 687.65 800 635.602 800H541.269C502.284 800 470.681 768.397 470.681 729.412V575.45C470.681 551.632 451.161 531.986 427.033 530.645L423.56 530.54H376.44C351.45 530.54 330.837 549.143 329.429 572.14L329.319 575.45V729.412C329.319 768.397 297.716 800 258.731 800H164.398C112.35 800 70.1568 759.786 70.1568 710.18V395.809H58.885ZM555.448 755.09H635.602C661.626 755.09 682.722 734.983 682.722 710.18V355.605C682.722 353.006 684.829 350.899 687.428 350.899H728.821C731.42 350.899 733.527 348.792 733.527 346.193C733.527 344.857 732.958 343.583 731.963 342.69L415.711 59.0037C406.772 50.9847 393.228 50.9847 384.288 59.0037L68.0363 342.69C66.1016 344.426 65.9402 347.401 67.6756 349.336C68.5682 350.331 69.8418 350.899 71.1786 350.899H112.571C115.17 350.899 117.277 353.006 117.277 355.605V710.18C117.277 734.983 138.374 755.09 164.398 755.09H244.553C265.344 755.088 282.199 738.234 282.202 717.443L282.209 574.801L282.358 570.192C285.238 522.824 326.45 485.629 376.44 485.629L424.24 485.639L429.076 485.781C478.776 488.526 517.801 527.805 517.801 575.45V717.443C517.801 738.235 534.656 755.09 555.448 755.09Z" fill="#E4E6EB"/>
</g>
<defs>
<clipPath id="clip0_127_2">
<rect width="800" height="800" fill="white"/>
</clipPath>
</defs>
</svg>
