<svg width="800" height="800" viewBox="0 0 800 800" fill="none" xmlns="http://www.w3.org/2000/svg">
<path d="M666.949 282.484L791.051 396.774C806.046 410.781 801.767 421.578 781.431 421.578H688.346V720.19C688.346 740.682 671.228 759 650.893 759H489.337V549.841C489.337 529.349 471.158 511.031 450.822 511.031H349.178C328.842 511.031 310.663 529.349 310.663 549.841V759H149.107C128.772 759 110.593 740.682 110.593 720.19V421.578H18.5687C-1.76702 421.578 -6.04641 410.781 8.9486 396.774L371.636 64.7344C386.631 50.7284 412.308 50.7284 428.33 64.7344L510.7 139.111V79.8099C510.7 59.3183 528.878 41 549.214 41H629.461C649.797 41 666.915 59.3183 666.915 79.8099L666.949 282.484Z" fill="#B0B3B8"/>
</svg>
