<svg width="800" height="800" viewBox="0 0 800 800" fill="none" xmlns="http://www.w3.org/2000/svg">
<g clip-path="url(#clip0_136_21)">
<path d="M400 66.6667C584.093 66.6667 733.333 215.905 733.333 400C733.333 584.093 584.093 733.333 400 733.333C215.905 733.333 66.6665 584.093 66.6665 400C66.6665 215.905 215.905 66.6667 400 66.6667ZM399.666 333.333H366.666C348.256 333.333 333.333 348.257 333.333 366.667C333.333 383.762 346.201 397.85 362.779 399.776L366.666 400V566.333C366.666 583.687 379.794 597.975 396.664 599.803L400.333 600H416.666C435.076 600 450 585.077 450 566.667C450 555.701 444.703 545.97 436.529 539.895L433.333 537.793V367C433.333 349.646 420.203 335.359 403.335 333.531L399.666 333.333ZM400 233.333C381.59 233.333 366.666 248.257 366.666 266.667C366.666 285.076 381.59 300 400 300C418.41 300 433.333 285.076 433.333 266.667C433.333 248.257 418.41 233.333 400 233.333Z" fill="#8C939D"/>
</g>
<defs>
<clipPath id="clip0_136_21">
<rect width="800" height="800" fill="white"/>
</clipPath>
</defs>
</svg>
