<svg width="20" height="20" viewBox="0 0 20 20" fill="none" xmlns="http://www.w3.org/2000/svg">
<g clip-path="url(#clip0_125_17)">
<path d="M5.83332 17.4998C5.83332 18.189 5.27164 18.7498 4.58332 18.7498H2.08332C1.39332 18.7498 0.83332 18.189 0.83332 17.4998V10.8331C0.83332 10.144 1.39414 9.58314 2.08332 9.58314V9.58732H5.83164V10.004C5.83164 10.0065 5.83332 10.0082 5.83332 10.0107V17.4998Z" fill="#E4E6EB"/>
<path d="M18.2417 12.9048C18.0809 12.9231 17.945 13.0323 17.8942 13.1865C17.8434 13.3398 17.885 13.5098 18.0034 13.6207C18.2159 13.8215 18.3325 14.0899 18.3325 14.3765C18.3325 14.9015 17.9359 15.344 17.4092 15.404C17.2484 15.4223 17.1125 15.5315 17.0617 15.6857C17.0109 15.839 17.0525 16.009 17.1709 16.1199C17.4459 16.379 17.5559 16.7424 17.4734 17.1149C17.3709 17.579 16.9192 17.9165 16.3992 17.9165H8.75C8.13082 17.9165 7.13418 17.649 6.66668 17.3015V10.2598L7.2675 9.95982C7.35168 9.91732 7.41918 9.84732 7.45918 9.7615L9.95918 4.34482C9.98418 4.29064 9.9975 4.23064 9.9975 4.17064V1.48064C10.1708 1.38482 10.4717 1.25396 10.8308 1.25396C11.2875 1.25396 12.4975 2.38979 12.4975 3.75396C12.4975 5.21979 11.7 7.33478 11.6917 7.35564C11.6434 7.48314 11.66 7.62732 11.7384 7.73982C11.8167 7.85232 11.9442 7.91982 12.0817 7.91982H17.8159C18.5109 7.91982 19.1009 8.4165 19.1592 9.0515C19.2034 9.5265 18.9767 9.97818 18.5667 10.2307C18.4384 10.309 18.3634 10.4515 18.3692 10.6015C18.3742 10.7515 18.4609 10.8865 18.595 10.9557C18.9467 11.1357 19.165 11.489 19.165 11.8774C19.1642 12.4023 18.7675 12.8448 18.2417 12.9048Z" fill="#E4E6EB"/>
<path fill-rule="evenodd" clip-rule="evenodd" d="M20 11.8756C20 11.3748 19.8008 10.9081 19.4583 10.5631C19.8475 10.1373 20.045 9.56564 19.9908 8.97232C19.8941 7.91314 18.9391 7.08314 17.8183 7.08314H12.6717C12.925 6.30896 13.3334 4.88982 13.3334 3.74982C13.3334 1.94232 11.7975 0.416504 10.8334 0.416504C9.96754 0.416504 9.34836 0.903184 9.32254 0.924004C9.22336 1.004 9.16672 1.12318 9.16672 1.24982V4.07482L6.76672 9.27564L6.66672 9.32564V9.16646C6.66672 8.93646 6.48004 8.74979 6.25004 8.74979H2.08332C0.935 8.74982 0 9.68482 0 10.8331V17.4998C0 18.6481 0.935 19.5831 2.08332 19.5831H4.58332C5.485 19.5831 6.25414 19.0081 6.545 18.2065C7.23832 18.5631 8.17168 18.7506 8.75082 18.7506H16.4C17.3075 18.7506 18.1008 18.1381 18.2875 17.2948C18.3833 16.8606 18.3275 16.4231 18.1375 16.0431C18.7525 15.7331 19.1667 15.099 19.1667 14.3756C19.1667 14.0806 19.0992 13.7981 18.9709 13.5423C19.5858 13.2323 20 12.5981 20 11.8756ZM4.58332 18.7498C5.27164 18.7498 5.83332 18.189 5.83332 17.4998V10.0107C5.83332 10.0082 5.83164 10.0065 5.83164 10.004V9.58732H2.08332V9.58314C1.39414 9.58314 0.83332 10.144 0.83332 10.8331V17.4998C0.83332 18.189 1.39332 18.7498 2.08332 18.7498H4.58332ZM17.8942 13.1865C17.945 13.0323 18.0809 12.9231 18.2417 12.9048C18.7675 12.8448 19.1642 12.4023 19.165 11.8774C19.165 11.489 18.9467 11.1357 18.595 10.9557C18.4609 10.8865 18.3742 10.7515 18.3692 10.6015C18.3634 10.4515 18.4384 10.309 18.5667 10.2307C18.9767 9.97818 19.2034 9.5265 19.1592 9.0515C19.1009 8.4165 18.5109 7.91982 17.8159 7.91982H12.0817C11.9442 7.91982 11.8167 7.85232 11.7384 7.73982C11.66 7.62732 11.6434 7.48314 11.6917 7.35564C11.7 7.33478 12.4975 5.21979 12.4975 3.75396C12.4975 2.38979 11.2875 1.25396 10.8308 1.25396C10.4717 1.25396 10.1708 1.38482 9.9975 1.48064V4.17064C9.9975 4.23064 9.98418 4.29064 9.95918 4.34482L7.45918 9.7615C7.41918 9.84732 7.35168 9.91732 7.2675 9.95982L6.66668 10.2598V17.3015C7.13418 17.649 8.13082 17.9165 8.75 17.9165H16.3992C16.9192 17.9165 17.3709 17.579 17.4734 17.1149C17.5559 16.7424 17.4459 16.379 17.1709 16.1199C17.0525 16.009 17.0109 15.839 17.0617 15.6857C17.1125 15.5315 17.2484 15.4223 17.4092 15.404C17.9359 15.344 18.3325 14.9015 18.3325 14.3765C18.3325 14.0899 18.2159 13.8215 18.0034 13.6207C17.885 13.5098 17.8434 13.3398 17.8942 13.1865Z" fill="#E4E6EB"/>
</g>
<defs>
<clipPath id="clip0_125_17">
<rect width="20" height="20" fill="white"/>
</clipPath>
</defs>
</svg>
