<svg width="800" height="800" viewBox="0 0 800 800" fill="none" xmlns="http://www.w3.org/2000/svg">
<path d="M125 152H675C686.149 152.063 697.139 154.644 707.15 159.55L400 466.65L92.85 159.75C102.845 154.774 113.836 152.125 125 152Z" fill="#8C939D"/>
<path d="M675 647.5H125C113.851 647.437 102.861 644.856 92.85 639.95L247.2 485.6C251.887 480.912 254.52 474.554 254.52 467.925C254.52 461.296 251.887 454.938 247.2 450.25C242.512 445.563 236.154 442.93 229.525 442.93C222.896 442.93 216.538 445.563 211.85 450.25L57.5 604.75C52.6328 594.745 50.07 583.776 50 572.65V227C50.07 215.874 52.6328 204.905 57.5 194.9L382.5 519.9C384.826 522.22 387.586 524.059 390.623 525.312C393.661 526.564 396.915 527.206 400.2 527.2C403.485 527.206 406.739 526.564 409.777 525.312C412.814 524.059 415.574 522.22 417.9 519.9L742.9 194.9C747.629 204.937 750.055 215.905 750 227V572.5C749.93 583.626 747.367 594.595 742.5 604.6L665.325 527.425L588.15 450.25C583.462 445.563 577.104 442.93 570.475 442.93C563.846 442.93 557.488 445.563 552.8 450.25C548.113 454.938 545.48 461.296 545.48 467.925C545.48 474.554 548.113 480.912 552.8 485.6L707.15 639.75C697.155 644.726 686.164 647.375 675 647.5Z" fill="#8C939D"/>
</svg>
