<svg width="24" height="24" viewBox="0 0 24 24" fill="none" xmlns="http://www.w3.org/2000/svg">
<path fill-rule="evenodd" clip-rule="evenodd" d="M12 1C6.36667 1 2 5.12671 2 10.7001C2 13.6151 3.195 16.1352 5.14083 17.8752C5.30417 18.021 5.4025 18.226 5.41 18.4452L5.46417 20.2235C5.48167 20.7911 6.0675 21.1602 6.58667 20.9311L8.57167 20.0552C8.74 19.981 8.92833 19.9677 9.10583 20.016C10.0175 20.2669 10.9883 20.4002 12 20.4002C17.6333 20.4002 22 16.2735 22 10.7001C22 5.12671 17.6333 1 12 1ZM18.005 8.46342L15.0675 13.1243C14.6 13.866 13.5992 14.0501 12.8983 13.5243L10.5617 11.7718C10.3475 11.6109 10.0525 11.6118 9.83917 11.7743L6.68333 14.1685C6.2625 14.4876 5.7125 13.9843 5.99417 13.5368L8.93167 8.87592C9.39917 8.13424 10.4 7.95008 11.1008 8.47591L13.4375 10.2284C13.6517 10.3893 13.9467 10.3884 14.16 10.2259L17.3158 7.83174C17.7375 7.51257 18.2867 8.01591 18.005 8.46342Z" fill="#8C939D"/>
</svg>
