<svg width="17" height="20" viewBox="0 0 658 775" fill="none" xmlns="http://www.w3.org/2000/svg">
<path d="M424.963 636.146C424.963 646.256 422.376 656.269 417.353 665.613C412.326 674.956 404.963 683.443 395.679 690.596C386.393 697.746 375.369 703.416 363.239 707.286C351.109 711.156 338.106 713.149 324.976 713.149C311.846 713.149 298.846 711.156 286.713 707.286C274.583 703.416 263.559 697.746 254.276 690.596C244.992 683.443 237.627 674.956 232.602 665.613C227.577 656.269 224.991 646.256 224.991 636.146" stroke="#E4E6EB" stroke-width="50" stroke-linecap="round"/>
<path d="M583.026 427.689L591.846 446.716C625.496 519.279 581.672 604.096 503.019 618.633L497.679 619.619C383.512 640.723 266.442 640.723 152.275 619.619C72.9782 604.963 31.0265 517.233 69.3985 446.309L76.9455 432.359C97.5512 394.272 108.342 351.649 108.342 308.347V264.304C108.342 190.177 150.297 122.437 216.66 89.4119C285.136 55.3359 365.376 54.1769 434.806 86.2605L441.629 89.4119C512.746 122.275 558.279 193.474 558.279 271.817V315.505C558.279 354.253 566.722 392.536 583.026 427.689Z" fill="#E4E6EB" stroke="#E4E6EB" stroke-width="50"/>
</svg>
