<svg width="20" height="20" viewBox="0 0 800 800" fill="none" xmlns="http://www.w3.org/2000/svg">
<g clip-path="url(#clip0_133_11)">
<path d="M492.824 216.647C492.824 305.168 429.662 368.973 361.189 368.973C293.01 368.973 229.555 305.072 229.555 217.427C229.555 131.36 292.639 69 361.189 69C429.917 69 492.824 129.99 492.824 216.647ZM599.256 730H123.124C94.2499 730 79.0119 725.598 71.3248 720.385C65.4934 716.431 62 710.674 62 698.146C62 655.355 88.6171 600.63 140.824 555.924C192.459 511.708 267.66 478.761 361.189 478.761C454.52 478.761 529.625 511.701 581.217 555.919C633.381 600.626 660 655.353 660 698.146C660 710.681 656.499 716.454 650.694 720.405C643.056 725.603 627.921 730 599.256 730Z" stroke="#E4E6EB" stroke-width="40"/>
<path fill-rule="evenodd" clip-rule="evenodd" d="M683 140C752.036 140 808 195.964 808 265C808 334.036 752.036 390 683 390C613.964 390 558 334.036 558 265C558 195.964 613.964 140 683 140ZM762.009 203.693L621.693 344.009C638.625 357.166 659.897 365 683 365C738.228 365 783 320.228 783 265C783 241.897 775.166 220.625 762.009 203.693ZM683 165C627.772 165 583 209.772 583 265C583 288.103 590.834 309.375 603.991 326.307L744.307 185.991C727.375 172.834 706.103 165 683 165Z" fill="#E4E6EB"/>
</g>
<defs>
<clipPath id="clip0_133_11">
<rect width="800" height="800" fill="white"/>
</clipPath>
</defs>
</svg>
