<svg width="800" height="800" viewBox="0 0 800 800" fill="none" xmlns="http://www.w3.org/2000/svg">
<path d="M66.8632 151.389C63.5002 103.745 103.844 66.6666 151.508 66.6666H253.536C278.002 66.6666 300.069 81.4086 309.48 104.04L352.144 206.649C362.537 231.644 355.16 260.515 334.06 277.431L307.465 298.751C295.596 308.266 291.561 324.673 298.598 338.16C334.764 407.47 388.214 466.293 453.214 508.89C466.934 517.88 485.057 514.303 495.294 501.483L523.007 466.767C539.887 445.623 568.697 438.233 593.64 448.647L696.037 491.4C718.623 500.83 733.334 522.943 733.334 547.46V650C733.334 697.763 694.964 736.517 647.42 733.137C343.404 711.507 88.4159 456.723 66.8632 151.389Z" fill="#8C939D"/>
</svg>
