<svg width="20" height="20" viewBox="0 0 800 800" fill="none" xmlns="http://www.w3.org/2000/svg">
<path fill-rule="evenodd" clip-rule="evenodd" d="M228.555 76.8155C276.407 72.2985 346.603 66.6665 400 66.6665C453.397 66.6665 523.593 72.2985 571.443 76.8155C616.587 81.0765 651.633 117.005 654.993 161.726C659.747 224.972 666.667 330.261 666.667 407.89C666.667 467.4 662.603 543.05 658.583 603.45C656.567 633.73 654.55 660.323 653.037 679.353C652.283 688.87 651.653 696.497 651.21 701.753L650.697 707.8L650.513 709.886L650.51 709.92C650.51 709.923 650.51 709.923 624.803 707.693L650.51 709.92C649.757 718.51 644.707 726.15 637.073 730.25C629.437 734.35 620.24 734.363 612.597 730.283L404.07 619.043C401.527 617.69 398.473 617.69 395.93 619.043L187.404 730.283C179.759 734.363 170.562 734.35 162.928 730.25C155.294 726.15 150.244 718.513 149.489 709.923L175.197 707.693C149.489 709.923 149.489 709.927 149.489 709.923L149.304 707.8L148.79 701.753C148.348 696.497 147.718 688.87 146.962 679.353C145.45 660.323 143.434 633.73 141.418 603.45C137.397 543.05 133.333 467.4 133.333 407.89C133.333 330.261 140.254 224.972 145.007 161.726C148.367 117.005 183.412 81.0765 228.555 76.8155ZM197.726 666.57L371.517 573.863C389.303 564.373 410.697 564.373 428.483 573.863L602.273 666.57C603.67 648.66 605.377 625.69 607.08 600.063C611.09 539.873 615.053 465.623 615.053 407.89C615.053 332.366 608.273 228.775 603.523 165.544C602.02 145.533 586.46 129.746 566.563 127.868C518.837 123.363 450.75 117.949 400 117.949C349.25 117.949 281.162 123.363 233.436 127.868C213.541 129.746 197.98 145.533 196.476 165.544C191.725 228.775 184.946 332.366 184.946 407.89C184.946 465.623 188.911 539.873 192.919 600.063C194.625 625.69 196.331 648.66 197.726 666.57Z" fill="#E4E6EB"/>
</svg>
