<svg width="20" height="20" viewBox="0 0 512 512" fill="none" xmlns="http://www.w3.org/2000/svg">
<path d="M440.833 143.674H388.393C384.286 126.828 375.31 111.954 362.849 101.35C350.389 90.7457 335.138 85 319.451 85C303.764 85 288.513 90.7457 276.052 101.35C263.592 111.954 254.615 126.828 250.508 143.674H19.1667C14.0834 143.674 9.20823 145.921 5.61379 149.92C2.01934 153.919 0 159.344 0 165C0 170.656 2.01934 176.081 5.61379 180.08C9.20823 184.079 14.0834 186.326 19.1667 186.326H250.508C254.615 203.172 263.592 218.046 276.052 228.65C288.513 239.254 303.764 245 319.451 245C335.138 245 350.389 239.254 362.849 228.65C375.31 218.046 384.286 203.172 388.393 186.326H440.833C445.917 186.326 450.792 184.079 454.386 180.08C457.981 176.081 460 170.656 460 165C460 159.344 457.981 153.919 454.386 149.92C450.792 145.921 445.917 143.674 440.833 143.674ZM319.451 202.321C312.817 202.321 306.332 200.132 300.816 196.031C295.3 191.93 291.001 186.102 288.462 179.282C285.924 172.463 285.259 164.959 286.554 157.719C287.848 150.479 291.042 143.829 295.733 138.61C300.424 133.391 306.401 129.836 312.907 128.396C319.414 126.956 326.158 127.695 332.287 130.52C338.416 133.345 343.654 138.128 347.34 144.266C351.025 150.403 352.992 157.619 352.992 165C352.982 174.895 349.445 184.381 343.157 191.378C336.869 198.374 328.344 202.31 319.451 202.321Z" fill="white"/>
<path d="M466.833 339.668H235.511C231.397 322.822 222.417 307.95 209.955 297.347C197.494 286.744 182.244 281 166.559 281C150.873 281 135.623 286.744 123.162 297.347C110.701 307.95 101.721 322.822 97.6067 339.668H45.1667C40.0833 339.668 35.2082 341.916 31.6138 345.916C28.0193 349.917 26 355.342 26 361C26 366.658 28.0193 372.083 31.6138 376.084C35.2082 380.084 40.0833 382.332 45.1667 382.332H97.6067C101.721 399.178 110.701 414.05 123.162 424.653C135.623 435.255 150.873 441 166.559 441C182.244 441 197.494 435.255 209.955 424.653C222.417 414.05 231.397 399.178 235.511 382.332H466.833C471.917 382.332 476.792 380.084 480.386 376.084C483.981 372.083 486 366.658 486 361C486 355.342 483.981 349.917 480.386 345.916C476.792 341.916 471.917 339.668 466.833 339.668ZM166.549 398.331C159.915 398.331 153.43 396.141 147.914 392.039C142.399 387.937 138.099 382.107 135.561 375.286C133.022 368.465 132.358 360.959 133.652 353.717C134.946 346.476 138.141 339.824 142.832 334.603C147.523 329.382 153.499 325.827 160.006 324.387C166.512 322.946 173.256 323.685 179.385 326.511C185.514 329.336 190.752 334.121 194.438 340.26C198.124 346.399 200.091 353.617 200.091 361C200.076 370.896 196.537 380.381 190.25 387.378C183.963 394.375 175.44 398.314 166.549 398.331Z" fill="white"/>
</svg>
