<svg width="20" height="20" viewBox="0 0 800 800" fill="none" xmlns="http://www.w3.org/2000/svg">
<path d="M693.047 420.25C701.183 413.273 705.25 409.787 706.743 405.637C708.05 401.993 708.05 398.01 706.743 394.367C705.25 390.217 701.183 386.73 693.047 379.753L410.687 137.734C396.68 125.727 389.677 119.724 383.747 119.577C378.593 119.449 373.67 121.713 370.413 125.709C366.667 130.307 366.667 139.532 366.667 157.981V301.156C295.511 313.604 230.386 349.66 181.99 403.797C129.227 462.82 100.041 539.2 100 618.367V638.767C134.978 596.63 178.65 562.553 228.025 538.867C271.557 517.983 318.614 505.613 366.667 502.353V642.023C366.667 660.47 366.667 669.697 370.413 674.293C373.67 678.29 378.593 680.553 383.747 680.427C389.677 680.28 396.68 674.277 410.687 662.27L693.047 420.25Z" stroke="#E4E6EB" stroke-width="66.6667" stroke-linecap="round" stroke-linejoin="round"/>
</svg>
