<svg width="16" height="16" viewBox="0 0 800 800" fill="none" xmlns="http://www.w3.org/2000/svg">
<path d="M253.75 343.75C280.625 343.75 302.5 321.875 302.5 295C302.5 268.125 280.625 246.25 253.75 246.25C226.875 246.25 205 268.125 205 295C205 321.875 226.875 343.75 253.75 343.75ZM546.25 343.75C573.125 343.75 595 321.875 595 295C595 268.125 573.125 246.25 546.25 246.25C519.375 246.25 497.5 268.125 497.5 295C497.5 321.875 519.375 343.75 546.25 343.75ZM265.625 554.375C300 581.25 344.375 597.5 400 597.5C455.625 597.5 500 581.25 534.375 554.375C555 537.5 567.5 521.25 573.75 508.75C578.75 499.375 574.375 487.5 565 482.5C555.625 477.5 543.75 481.875 538.75 491.25C538.125 492.5 536.25 496.25 532.5 500.625C526.875 508.75 518.75 516.25 510 523.75C483.125 545.625 446.875 558.75 400 558.75C353.125 558.75 317.5 545.625 290 523.75C280.625 516.25 273.125 508.125 267.5 500.625C264.375 496.25 261.875 493.125 261.25 491.25C256.25 481.875 245 477.5 235 482.5C225 487.5 221.25 498.75 226.25 508.75C232.5 521.25 245 537.5 265.625 554.375Z" fill="#B0B3B8"/>
<path d="M400 789.375C183.75 789.375 7.5 613.125 7.5 396.875C7.5 180.625 183.75 4.375 400 4.375C616.25 4.375 792.5 180.625 792.5 396.875C792.5 613.125 616.25 789.375 400 789.375ZM400 41.875C204.375 41.875 45 201.25 45 396.875C45 592.5 204.375 751.875 400 751.875C595.625 751.875 755 592.5 755 396.875C755 201.25 595.625 41.875 400 41.875Z" fill="#B0B3B8"/>
</svg>
