<svg width="20" height="20" viewBox="0 0 800 800" fill="none" xmlns="http://www.w3.org/2000/svg">
<g clip-path="url(#clip0_141_88)">
<path d="M400.01 0C182.134 0 4.88916 136.084 4.88916 303.358C4.88916 429.625 106.063 541.901 258.351 586.598C255.297 633.866 242.292 678.458 219.605 719.426C201.053 752.916 196.879 772.346 205.227 786.463C210.281 795.082 219.479 800 230.436 800C230.475 800 230.514 800 230.552 800C245.123 800 283.888 799.507 529.204 590.058C688.449 547.93 795.121 433.171 795.121 303.348C795.13 136.084 617.856 0 400.01 0ZM514.952 552.887L510.479 554.017L506.971 557.022C340.77 699.126 272.545 742.017 245.915 754.906C247.857 750.606 250.544 745.224 254.215 738.586C282.487 687.541 297.415 631.509 298.546 572.095L298.845 556.462L283.695 552.577C140.587 515.667 44.437 415.508 44.437 303.358C44.437 157.911 203.942 39.5671 400 39.5671C596.048 39.5671 755.544 157.911 755.544 303.358C755.544 415.991 658.863 516.276 514.952 552.887ZM429.673 118.827C432.05 121.262 433.335 124.547 433.238 127.939L424.938 388.55C424.765 395.381 419.16 400.831 412.329 400.831H387.681C380.83 400.831 375.245 395.391 375.071 388.55L366.771 127.939C366.675 124.537 367.96 121.262 370.337 118.827C372.714 116.402 375.96 115.02 379.361 115.02H420.648C424.05 115.03 427.296 116.402 429.673 118.827ZM432.707 457.143V504.343C432.707 511.3 427.064 516.943 420.098 516.943H379.902C372.936 516.943 367.293 511.3 367.293 504.343V457.143C367.293 450.186 372.936 444.543 379.902 444.543H420.098C427.064 444.553 432.707 450.196 432.707 457.143Z" fill="#E4E6EB"/>
</g>
<defs>
<clipPath id="clip0_141_88">
<rect width="800" height="800" fill="white"/>
</clipPath>
</defs>
</svg>
