<svg width="800" height="800" viewBox="0 0 800 800" fill="none" xmlns="http://www.w3.org/2000/svg">
<path fill-rule="evenodd" clip-rule="evenodd" d="M480.04 105.833C462.397 70.3781 434.823 44.2384 399.957 44.2384C365.13 44.2384 337.47 70.3334 319.662 105.761L260.972 223.141L260.881 223.325C259.12 226.92 254.91 232.037 248.567 236.74C242.246 241.427 236.113 243.992 232.182 244.668L232.147 244.674L125.902 262.326C87.5648 268.716 55.3688 287.373 44.9338 320.05C34.5064 352.703 49.8878 386.567 77.3214 414L159.988 496.667C163.241 499.92 166.887 506.05 169.173 514.037C171.445 521.973 171.637 529.17 170.619 533.79L170.604 533.853L146.976 636.02C137.124 678.593 140.541 720.863 170.846 742.977C201.133 765.073 242.454 755.49 280.091 733.153L379.57 674.263L379.633 674.227C384.107 671.647 391.477 669.653 400.123 669.653C408.833 669.653 416.053 671.673 420.253 674.163L519.93 733.167C557.613 755.427 598.983 765.183 629.267 743.107C659.593 720.997 662.847 678.65 653.027 636.04L629.393 533.853L629.38 533.79C628.36 529.17 628.553 521.973 630.827 514.037C633.11 506.05 636.757 499.92 640.01 496.667L722.617 414.06L722.65 414.027C750.257 386.593 765.687 352.703 755.173 320.005C744.677 287.348 712.42 268.714 674.11 262.328L567.777 244.662" fill="#8C939D"/>
</svg>
