<svg width="16" height="16" viewBox="0 0 800 800" fill="none" xmlns="http://www.w3.org/2000/svg">
<path d="M477.502 52.5383C533.724 32.075 595.891 61.0636 616.354 117.286L694.776 332.748C701.579 351.439 700.678 372.068 692.272 390.096L580.281 630.259C571.875 648.287 556.652 662.237 537.96 669.04L322.498 747.462C266.276 767.925 204.11 738.936 183.646 682.714L52.5385 322.498C32.0752 266.276 61.0638 204.109 117.286 183.646L477.502 52.5383ZM494.603 99.523L134.387 230.631C104.114 241.649 88.5044 275.124 99.5231 305.397L230.631 665.613C241.65 695.886 275.124 711.496 305.397 700.477L516.828 623.522L481.931 527.553C475.381 531.11 468.591 534.357 461.564 537.291L451.441 541.243C409.202 556.617 366.241 558.709 323.248 547.454C309.891 543.957 301.898 530.295 305.394 516.938C308.891 503.581 322.554 495.587 335.911 499.084C369.036 507.756 401.616 506.169 434.34 494.258C448.821 488.988 461.98 482.187 473.868 473.821C477.676 435.942 501.363 401.585 537.968 385.502L544.56 382.857L646.324 345.818L569.369 134.387C558.351 104.113 524.877 88.5042 494.603 99.523ZM630.191 404.899L561.669 429.839C532.91 440.317 517.381 471.052 525.332 500.056L526.785 504.617L551.717 573.188L630.191 404.899ZM257.605 301.11C279.217 293.244 303.114 304.387 310.98 325.999C318.846 347.611 307.703 371.507 286.091 379.373C264.479 387.239 240.582 376.096 232.716 354.484C224.85 332.873 235.994 308.976 257.605 301.11ZM445.544 232.706C467.156 224.84 491.052 235.983 498.918 257.595C506.784 279.207 495.641 303.103 474.029 310.969C452.417 318.835 428.521 307.692 420.655 286.08C412.789 264.469 423.932 240.572 445.544 232.706Z" fill="#B0B3B8"/>
</svg>
