<svg width="28" height="28" viewBox="0 0 800 800" fill="none" xmlns="http://www.w3.org/2000/svg">
<path d="M693 339.138V691.827C692.848 697.115 691.593 702.323 689.306 707.153C687.018 711.983 683.744 716.341 679.669 719.977C675.595 723.614 670.8 726.457 665.559 728.346C660.318 730.235 654.734 731.131 649.125 730.984H151.875C146.266 731.131 140.682 730.235 135.441 728.346C130.2 726.457 125.405 723.614 121.331 719.977C117.256 716.341 113.982 711.983 111.694 707.153C109.407 702.323 108.152 697.115 108 691.827V339" stroke="#E4E6EB" stroke-width="37.5"/>
<path d="M317 731V504H486V731" stroke="#E4E6EB" stroke-width="37.5"/>
<path d="M55.8195 224.063C55.8195 224.063 39.7233 336.406 150.202 353.489C166.331 355.857 182.796 354.473 198.29 349.447C213.785 344.421 227.882 335.891 239.462 324.535C249.776 335.55 262.307 344.306 276.247 350.241C290.188 356.176 305.23 359.157 320.406 358.994C335.581 358.83 350.554 355.525 364.361 349.291C378.168 343.057 390.502 334.032 400.571 322.797C419.263 343.808 445.524 356.747 473.735 358.845C504.823 356.361 534.654 345.606 560.069 327.72C568.807 337.129 579.348 344.726 591.079 350.069C602.81 355.413 615.498 358.396 628.405 358.845C645.432 358.922 662.271 355.323 677.748 348.298C693.224 341.274 706.966 330.994 718.014 318.176C729.062 305.357 737.15 290.308 741.715 274.079C746.28 257.85 747.211 240.83 744.444 224.208L675.377 77.4102C674.33 74.6393 672.451 72.252 669.992 70.5696C667.533 68.8872 664.611 67.9905 661.622 68.0001H137.178C134.171 68.0013 131.237 68.9193 128.776 70.6289C126.315 72.3386 124.446 74.757 123.424 77.555L55.8195 224.063Z" stroke="#E4E6EB" stroke-width="37.5"/>
<path d="M56 224H745" stroke="#E4E6EB" stroke-width="37.5"/>
<path d="M240 224V68" stroke="#E4E6EB" stroke-width="37.5"/>
<path d="M402 224V68" stroke="#E4E6EB" stroke-width="37.5"/>
<path d="M562 224V68" stroke="#E4E6EB" stroke-width="37.5"/>
</svg>
